<svg width="74" height="98" fill="none" xmlns="http://www.w3.org/2000/svg"><path d="M31.61 90.352h.213a55.069 55.069 0 0 0 9.406-.947c.386-.077.753-.193 1.14-.27 1.506.154 2.955.618 4.075 1.777a6.35 6.35 0 0 1 1.603 2.877c.212.792.309 2.202-.734 2.376a6.024 6.024 0 0 1-1.043.077c-1.024 0-2.105-.173-3.071-.193l-4.597-.193c-2.723-.096-5.543-.116-8.208-.715 0-.791-.058-1.583-.135-2.356-.078-.792-.097-1.719-.387-2.472.58 0 1.16.039 1.738.039Zm-20.067 5.33c-.483 0-.966-.019-1.43-.116-1.332-.25-2.027-1.37-1.448-2.723.483-1.1 1.623-1.854 2.588-2.472a13.418 13.418 0 0 1 3.477-1.564l.405-.097c.213.039.445.077.657.116a83.16 83.16 0 0 0 5.775.83l.811.116c1.642.251 3.284.367 4.945.444a8.99 8.99 0 0 0-.657 2.473 25.643 25.643 0 0 0-.193 2.472c-1.275.135-2.51.116-3.805.135-1.39.02-2.762.058-4.133.097-1.449.038-2.897.096-4.326.154-.87.039-1.777.135-2.666.135ZM15.58 48.71c.347-.038 5.33-1.448 5.852-1.66.521-.213 1.12-.484 1.758-.735-.503.715-.85 1.526-.947 2.415-.154 1.429.483 2.877 1.43 3.901 1.216 1.294 2.897 1.835 4.616 1.835a8.975 8.975 0 0 0 3.785-.85c2.414-1.1 4.326-3.65 3.65-6.45-.038-.233-.135-.445-.231-.677l.077.039c.811.502 6.316 2.066 6.721 2.182.155.058.31.078.445.078.25 0 .482-.078.695-.174.096.54.174 1.081.27 1.622.174 1.062.27 2.144.386 3.226l.058.096c.754 1.275 1.352 2.608 1.912 3.979l-.212.135c-.463-.811-1.004-1.564-1.545-2.337l.097.54c.27.503.521 1.025.753 1.546.347.753.599 1.564.869 2.337.29.85.425 1.719.734 2.55l-.193.077c-.329-.773-.792-1.468-1.16-2.221l-.173-.31c.116.27.251.522.348.792.598 1.584 1.004 3.245 1.313 4.906l-.27.077c-.464-1.448-1.024-2.877-1.72-4.21.02.367.04.734.059 1.12l.193.464c.328.927.618 1.892.81 2.858.194 1.024.252 2.067.426 3.071l-.155.039c-.193-.927-.483-1.816-.81-2.704l-.29-.753v.29c.231.675.482 1.332.656 2.027.232.947.406 1.893.483 2.84.077 1.004-.097 2.027-.213 3.032h-.154c.097-1.043-.116-2.028-.328-3.032-.078-.368-.213-.696-.31-1.063 0 .367.059.734.059 1.12 0 .252-.04.483-.04.734.233 1.661.252 3.361.04 5.022h-.29c0-.599-.077-1.197-.135-1.796l-.02.077c-.25 1.449-.734 2.762-1.12 4.172l-.154-.039c.27-1.352.309-2.8.386-4.172l-.02.27c-.096.716-.25 1.41-.424 2.106-.194.734-.502 1.371-.754 2.086l-.27-.077c.077-.329.135-.676.174-1.024a.88.88 0 0 1-.425.116c-.058 0-.135 0-.193-.02a39.36 39.36 0 0 1-.947 2.067l-.173-.058c.231-.83.424-1.641.598-2.472l-.116-.02-.135.213c-.502 1.024-1.178 2.009-1.757 2.936l-.194-.116c.27-.657.56-1.333.812-2.008h-.02l-.096.193-.348.27-.02.02a2.339 2.339 0 0 1-.694.56c-.232.328-.445.675-.676 1.023l-.136-.077c.174-.27.29-.56.444-.83l-.347.096c-.29.425-.599.83-.927 1.217-.444.502-.985.907-1.545 1.294l-.174-.174c.386-.54.676-1.12 1.023-1.7l-.424-.02-.078.117c-.367.521-.772 1.043-1.255 1.468a9.677 9.677 0 0 1-1.39 1.1l-.136-.192c.367-.425.695-.85 1.004-1.314l.04-.058c-.271.213-.58.31-.89.31-.173.231-.328.501-.52.714-.271.328-.6.618-.909.927l-.25-.232c.192-.386.366-.772.54-1.159l.27-.521c-.25.212-.502.425-.772.58-.27.154-.56.27-.87.308-.27.27-.52.56-.83.754l-.599.328c-.212.096-.424.116-.656.154l-.097-.212.387-.502.366-.464.348-.463-.02-.058v-.039l-.289.135-.328.02c.02.328-.193.637-.483.772l-.483.522-.367.212-.367.193-.116-.212.27-.213.194-.309.174-.29-.27-.154c-.117.155-.29.27-.484.27h-.116c-.328-.058-.56-.25-.753-.502l-.29.31c-.231-.059-.424-.194-.618-.29.425.521.85 1.043 1.41 1.37l-.058.117c-.714-.425-1.448-.792-2.105-1.314l-.135-.115a.651.651 0 0 1-.328.096.595.595 0 0 1-.251-.058l-.252-.154.02.019-.155.212c-.309-.231-.58-.482-.869-.714l-.29.154c.541.425 1.101.83 1.72 1.16l-.097.192c-1.12-.56-2.299-1.004-3.38-1.68-.29-.174-.522-.425-.792-.637l-.116-.039c.444.618.966 1.198 1.584 1.661l-.155.251a14.371 14.371 0 0 1-2.568-2.395h-.078a.78.78 0 0 1-.54-.193c-.213-.174-.367-.406-.541-.618.425.792.83 1.603 1.545 2.124l-.02.04c-.733-.503-1.525-.947-2.105-1.643a10.003 10.003 0 0 1-1.506-2.394l-.097-.387-.25-.348.154.6c.135.386.29.772.463 1.158.116.251.29.502.251.792l-.038.02c-.27-.097-.387-.368-.541-.619a11.63 11.63 0 0 1-.58-1.081c-.25-.522-.425-1.082-.618-1.623-.173-.309-.27-.656-.367-.985l-.019-.058v.29c.058.464.135.908.213 1.352.077.483.116.966.347 1.41l-.058.039c-.232-.406-.56-.734-.792-1.14a4.763 4.763 0 0 1-.502-1.217 10.34 10.34 0 0 1-.386-2.877c0-.619.077-1.237.135-1.855-.058-.25-.096-.54-.135-.81-.328 1.351-.521 2.78-.328 4.152l-.194.058c-.637-1.623-.656-3.4-.309-5.08.194-.927.464-1.854.85-2.723l.02-.29c.058-.87.193-1.738.29-2.607l-.213.56a20.57 20.57 0 0 0-.695 2.665c-.097.444-.174.87-.252 1.313a9.938 9.938 0 0 1-.135.754c-.077.309-.212.56-.232.907h-.077c.02-.502-.154-1.023-.154-1.545 0-.502.019-1.023.077-1.526.116-.985.29-1.95.521-2.916.329-1.352.87-2.627 1.526-3.843.039-.425.058-.87.097-1.295a23.253 23.253 0 0 0-.657 1.604c-.116.328-.232.675-.386 1.004l-.251.58c-.097.212-.251.444-.31.675l-.173-.038c.039-.232 0-.522 0-.754l.058-.618c.038-.405.135-.81.232-1.216.174-.792.367-1.584.637-2.357a19.83 19.83 0 0 1 1.313-2.82l.039-.212a8.152 8.152 0 0 0-.985 1.68l-.174-.077a23.59 23.59 0 0 1 1.449-3.264c.058-.328.096-.676.174-1.005.25-1.023.482-2.143.946-3.09l.02-.714.154.038Zm13.075 3.477c-1.487 0-3.032-.464-3.862-1.68-.503-.754-.889-3.921 1.564-4.868 1.371-.54 2.53-.734 3.515-.734 2.588 0 3.824 1.372 3.921 1.43.27.656.425 1.37.328 2.105-.25 1.931-2.047 3.129-3.766 3.554-.54.135-1.1.193-1.7.193ZM28.752 0c-.367 0-.715.174-.908.599C22.687 12.65 13.378 42.298 13.59 42.742c-.057.193-.115.387-.173.599l-.078.386v.348c-.116.386-.212.792-.328 1.197-.367 1.352-.676 2.704-1.004 4.056-.213.889-.425 1.777-.618 2.666a2.16 2.16 0 0 1 .695-.097 2.4 2.4 0 0 1 1.12.27c-.096.252-.174.483-.251.715-.348.908-.56 1.854-.792 2.781-.405 1.7-.618 3.438-.811 5.177-.599 1.004-1.217 2.008-1.816 3.013a60.322 60.322 0 0 1-.309 2.008v.058l.194.116.212.348c.618.444 1.024 1.178.946 1.95l-.019.155a2.2 2.2 0 0 1-.309 1.14l-.097.173c-.135.27-.29.522-.521.734l-.348.27v.117c-.096.85-.637 1.525-1.39 1.854-.193 1.429-.367 2.877-.56 4.307-.116.83-.251 1.7-.348 2.569.406.096.792.231 1.1.521.484.425.349 1.333-.192 1.642a1.71 1.71 0 0 1-.87.212h-.096l.116.329c-.811 1.216.02 3.322 1.14 4.152.888.676 1.989 1.082 3.109 1.41-.657.348-1.294.753-1.835 1.14-2.066 1.487-4.172 4.577-1.95 6.914 1.41 1.487 3.34 1.796 5.33 1.796 1.256 0 2.53-.116 3.69-.154a263.89 263.89 0 0 0 5.523-.174c.927-.02 1.835-.097 2.762-.174.251-.02.502-.02.734-.02.676 0 1.332.078 2.028.155h.077c.251 0 .502-.135.695-.328.252.193.58.309.908.309.077 0 .155 0 .232-.02a22.17 22.17 0 0 1 3.592-.27c2.704 0 5.466.367 8.093.541 1.835.116 3.67.348 5.505.367h.077c1.275 0 2.472-.463 3.051-1.7 1.14-2.491-.386-5.717-2.201-7.436a6.579 6.579 0 0 0-.928-.714c.329-.039.677-.078.986-.155a10.303 10.303 0 0 0 2.916-1.14c.715-.405 1.584-1.062 1.873-1.892l.097-.077c.116-.251.135-.464.135-.715v-.483c0-.309-.038-.637-.058-.946l-.077-.985c-.02-.367-.02-.715-.193-1.043l-.406-.232c.097-.328.174-.676.194-1.024.019-.56-.116-1.081-.329-1.603l-.038-.077c-.078-.54-.232-1.082-.329-1.603-.232-1.197-.444-2.376-.676-3.573-.463-2.376-.946-4.751-1.41-7.127-.038-.251-.096-.483-.135-.715h-.116c-.521 0-1.622-4.558-1.758-5.408-.096-.521-.173-1.062-.27-1.583-.077-.425-.058-1.082-.29-1.391-.386-.56-.212-1.43.232-1.893l.406-.309c-.02-.038-.02-.077-.039-.116-.27.039-.54.058-.83.058-.232 0-.445-.02-.676-.038-.425-.058-.483-.754-.116-.927a7.7 7.7 0 0 0 1.236-.773 41.609 41.609 0 0 0-.58-2.221c-.386-1.371-.753-2.723-1.14-4.095-.192-.676-.366-1.352-.578-2.028.115-.309.154-.637.038-.965-2.356-6.374-4.732-12.728-7.204-19.063-1.236-3.168-2.414-10.469-3.689-13.617-1.275-3.129-2.82-6.238-3.844-9.464C29.853.367 29.293 0 28.752 0Z" fill="#3D6637"/><path d="M12.103 51.898a2.87 2.87 0 0 0-.695.096 3.74 3.74 0 0 0-.425.155c-1.236.599-1.835 1.642-2.55 2.762-.56.907-1.12 1.796-1.66 2.704-1.082 1.777-2.202 3.553-3.265 5.369-.985 1.68-1.776 3.708-1.448 5.698a6.65 6.65 0 0 0-1.545 2.375c-.618 1.584-.676 3.38-.193 5.022.463 1.603 1.429 3.032 2.704 4.095a8.596 8.596 0 0 0 2.201 1.332c.522.232 1.16.464 1.758.483h.097c.309 0 .598-.058.869-.212.56-.29.695-1.198.212-1.642-.328-.29-.714-.406-1.12-.522a4.586 4.586 0 0 1-.888-.212 6.294 6.294 0 0 1-1.642-.927c-.966-.753-1.738-1.816-2.086-2.994-.386-1.255-.328-2.607.02-3.862.076-.31.231-.58.347-.889.85 1.333 2.26 2.298 3.785 2.298.367 0 .715-.058 1.082-.154.097-.039.193-.058.27-.116a2.322 2.322 0 0 0 1.391-1.874v-.115l.348-.27c.231-.233.367-.464.521-.735l.097-.174a2.34 2.34 0 0 0 .309-1.14l.02-.154c.057-.772-.349-1.506-.947-1.95l-.232-.329-.193-.116v-.058c.096-.675.212-1.352.309-2.008.598-1.005 1.217-2.009 1.835-3.013.193-1.738.405-3.477.83-5.176.232-.927.444-1.893.792-2.782.077-.231.174-.463.251-.714a2.974 2.974 0 0 0-1.159-.251Zm46.701 15.026c.136-.077.29-.155.445-.193 1.062-.27 2.279.637 2.607 1.796.328 1.217-.039 2.183-.753 2.859 1.12.579 2.433 1.216 3.341.656l.174-.116c.483-.425.58-1.236.618-1.892.02-.889-.039-1.816-.155-2.724-.115-.888-.328-1.835-.869-2.607-.521-.753-1.294-1.314-2.066-1.7-.947-.483-1.932-.637-2.917-.772a2.998 2.998 0 0 1-.29 1.97c-.347.714-.869 1.294-1.352 1.873-.25.329-.85.985-.772 1.333.058.27.058.521 0 .753.058.232.077.464 0 .695l.02-.058-.097.31-.058.115-.02.058-.019.135v.116l.02.116.077.27.077.232.077.136.077.115.194.194.135.077.077.039.155.058.502.096h.386l.193-.039a3.02 3.02 0 0 0 .599-.173l.02-.02h.019l.193-.096.328-.193a1.67 1.67 0 0 0 .425-.406l.232-.483.019-.154v-.039l-.02-.193-.019-.058-.057-.155v-.019l-.059-.096-.057-.078-.04-.038-.018-.02-.078-.019h-.096l-.232.058-.097.077c-.019.02-.038.039-.058.039a.71.71 0 0 1-.482.135l-.251-.039-.116-.038.058.02-.502-.407c-.329-.637 0-1.197.482-1.506Zm6.857 6.78a2.206 2.206 0 0 1-.367.192c-1.816.773-3.708-.328-5.08-1.873-.637.328-1.352.521-2.047.521-1.12 0-2.26-.56-2.974-1.603-.503-.714-.696-1.912-.367-2.723-1.16-1.236-2.898-1.99-4.52-2.221a6.493 6.493 0 0 0-1.352-.077c-.367.019-1.603-1.874-2.066-6.007-.097-.85-2.434-7.455-1.68-8.479.289-.386-.233 3.283.154 3.052.019-.02.676-2.704.714-2.724 1.41-.83 2.704 1.835 4.307 2.26.947.135 1.97.638 2.84 1.062a87.29 87.29 0 0 1 3.283 1.7c.985.522 1.97 1.101 2.646 2.047.29.406.444.85.463 1.275l.696.116c1.1.232 2.221.695 3.187 1.371 2.22 1.565 3.264 3.902 3.495 6.528.213 1.99.348 4.54-1.332 5.582Zm-2.568 4.094c-6.046 0-9.194 1.159-9.194 1.777 0 .618 3.167 1.777 9.194 1.777 6.025 0 9.193-1.16 9.193-1.777.02-.618-3.148-1.777-9.194-1.777Zm0 4.288c-3.98 0-9.928-.657-9.928-2.492s5.93-2.51 9.928-2.51c3.998 0 9.927.675 9.927 2.51 0 1.835-5.93 2.492-9.927 2.492Z" fill="#3D6637"/><path d="M72.654 79.4c0 1.178-4.288 2.144-9.56 2.144-5.273 0-9.561-.966-9.561-2.144l2.434 13.616c0 .792 3.186 1.43 7.127 1.43 3.94 0 7.126-.638 7.126-1.43L72.654 79.4Z" fill="#3D6637"/><path d="M72.19 79.807c-.019-.097-2.394-9.33-9.637-9.85v-1.45c3.457.252 6.47 2.203 8.614 5.64 1.584 2.55 1.835 5.331 1.854 5.428l-.154.502-.676-.27Zm-18.542-1.063c0-.154-.174-3.92 1.603-6.856l1.236.753c-1.545 2.55-1.39 6.007-1.39 6.045l-1.449.058Z" fill="#3D6637"/></svg>