<svg width="57" height="61" fill="none" xmlns="http://www.w3.org/2000/svg"><path d="M41.576 40.346s-6.333-7.816-6.796-11.863c-.417.618-.819 1.22-1.236 1.792.463 3.614 6.92 11.709 7.276 12.234 1.096 1.452 1.745 2.518 1.745 3.228 0 .958-.788 1.746-1.745 1.746a1.754 1.754 0 0 1-1.746-1.746c0-.417.232-.973.618-1.606-.263-.371-.68-.943-1.205-1.653-.803 1.19-1.313 2.255-1.313 3.26a3.659 3.659 0 0 0 3.66 3.66 3.659 3.659 0 0 0 3.662-3.66c-.016-1.422-1.004-2.936-2.92-5.392Z" fill="#3D6637"/><path d="M44.728 38.292c-1.065-1.344-6.38-8.048-7.615-13.655a42.932 42.932 0 0 1-1.282 2.193c.602 4.17 6.658 11.724 7.4 12.651 1.714 2.147 3.181 4 3.181 6.256a5.617 5.617 0 0 1-5.607 5.607 5.617 5.617 0 0 1-5.607-5.607c0-1.745.895-3.26 2.1-4.85-.37-.51-.757-1.066-1.143-1.653-1.544 1.993-2.857 3.97-2.857 6.503 0 4.14 3.367 7.523 7.522 7.523 4.14 0 7.523-3.368 7.523-7.523 0-2.92-1.76-5.113-3.615-7.445Z" fill="#3D6637"/><path d="M47.292 35.419c-4.82-6.194-7.29-10.813-8.094-15.231l-1.02 2.363c.572 2.858 1.607 4.866 2.642 6.782 1.53 2.935 3.352 5.22 4.99 7.26 2.502 3.135 4.48 5.622 4.48 9.129 0 5.221-4.249 9.469-9.47 9.469-5.221 0-9.469-4.248-9.469-9.47 0-3.135 1.591-5.467 3.723-8.17a40.846 40.846 0 0 1-1.035-1.777c-2.503 3.151-4.619 5.932-4.619 9.948 0 6.271 5.113 11.384 11.385 11.384 6.271 0 11.384-5.113 11.384-11.384.016-4.155-2.301-6.967-4.897-10.303Z" fill="#3D6637"/><path d="M49.841 32.623c-3.445-4.48-8.295-11.585-9.021-18.923-.14 1.453-.448 2.889-.865 4.295 1.483 6.657 5.654 12.25 8.372 15.802 3.12 4.063 5.824 7.585 5.824 11.94 0 7.353-5.978 13.331-13.331 13.331s-13.33-5.978-13.33-13.33c0-4.295 2.61-7.755 5.668-11.74a18.729 18.729 0 0 1-.803-2.101l-.556.742c-3.198 4.17-6.225 8.094-6.225 13.114 0 8.403 6.843 15.246 15.246 15.246s15.246-6.843 15.246-15.246c0-5.02-3.027-8.96-6.225-13.13Z" fill="#3D6637"/><path d="M19.225 4.231c7.06-.68 13.98 3.244 16.714 11.122 1.544 1.575 3.182 3.167 3.846 4.711-.247.88-.741.85-1.328.942-3.909-7.661-15-7.986-21.765-7.26 6.626.294 12.836 1.761 17.903 4.959-10.319 14.381-19.402-2.163-34.076 7.09C2.85 11.877 11.13 5.02 19.225 4.231Z" fill="#3D6637"/><path d="M34.131 6.903c-1.483 3.723-.432 8.095 3.43 10.829.617 1.081 1.22 2.224 1.961 2.826.525 0 .247.047.386-.262-1.127-1.931-.988-1.931-1.344-2.873-1.205-3.337 0-7.631 1.128-10.396-.88 3.645-1.066 7.245-.108 10.504C49.022 14.21 41.437 6.67 48.79.153c-7.924-.927-12.96 2.487-14.659 6.75Z" fill="#3D6637"/></svg>