<svg width="72" height="98" fill="none" xmlns="http://www.w3.org/2000/svg"><path d="M10.819 52.933c-.266-1.045-.437-2.052-.475-2.831a3.782 3.782 0 0 1 .019-.817c.55-1.463 2.565-3.458.703-6.555a7.805 7.805 0 0 0-1.54-1.387c-1.747-1.159-4.14-1.159-5.927-.114C1.813 42.255.445 44.08.236 46.15c-.247 2.565.97 4.028 3.04 5.244a3.603 3.603 0 0 0 2.698.399c.266.874.456 1.767.608 2.679.171 1.14 4.408-.78 4.237-1.54ZM8.483 67.088c.019.228.038.437.057.646.038.55.057 1.045.019 1.482a8.124 8.124 0 0 1-.095.817c-.703 1.387-2.907 3.173-1.387 6.44.418.627.95 1.178 1.387 1.54 1.615 1.348 4.008 1.576 5.89.74 1.88-.836 3.438-2.507 3.856-4.54.513-2.527-.55-4.104-2.489-5.53a3.79 3.79 0 0 0-2.64-.683c-.057-.323-.114-.646-.152-.97-.248-1.747-4.541-.93-4.446.058Z" fill="#3D6637"/><path d="m11.198 57.417-.056-.361a8.13 8.13 0 0 1 2.032-.342V56.6l.133-.228.02-.095.037-.076c.285-1.52-.76-1.957-1.995-1.957-1.291 0-2.773.475-3.172.665-.988.513-4.123 1.007-.703 9.974.912.418 1.957.703 2.963.703 1.52 0 2.926-.665 3.496-2.526.798-2.527 1.007-5.662-2.374-5.662-.115 0-.248 0-.38.019Zm.513-4.978c.665 0 1.235.095 1.634.266.228.114 1.805.95 2.071 1.71.19.55.114 1.12-.133 1.596l.342-.133c1.216.057 2.432.133 3.63.228.417-.171.835-.323 1.253-.494.266-.095.532-.21.798-.304l.095.019c.494 1.52.266 4.35.266 5.738 0 .399-.019.797-.038 1.197-.019.322.361-.817.323-.495-.038.456-.095.931-.152 1.425-.057.57-.133 1.14-.19 1.748-.19.057-2.812.931-3.002.97-1.653.493-3.344.911-4.978 1.367l-.494.02c-.076-.229-.987.322-1.386.056l-3.344.114c-4.408-.399-4.864-9.594-3.857-11.665.646-1.35 2.26-2.3 3.97-2.85.058.399 1.008.095.95-.247.818-.171 1.578-.266 2.242-.266Z" fill="#3D6637"/><path d="M69.147 66.764c-.894.285-1.862-.075-2.66-.436-.665-.305-1.254.626-.59 1.007.19.095.38.19.57.303a.811.811 0 0 1-.455.304c-.418.133-.931-.038-1.292-.265-.494-.305-1.71-2.224-2.033-2.718v-.018l.152-.02a5.953 5.953 0 0 0 2.698-1.747c.247-.19.475-.361.703-.551.456-.38.912-.817 1.235-1.311.76.418 2.299 2.26 2.622 3.21.36.97.076 1.9-.95 2.242ZM57.48 70.355h-.057c-.02-.342-.171-.589-.247-.912-.057-.247-.076-.494-.133-.74-.076-.438-.171-.874-.266-1.312a21.943 21.943 0 0 0-.703-2.66c-.057-.19-.152-.36-.228-.55.114.874.247 1.728.304 2.603 0 .094.019.209.019.303.399.874.665 1.786.874 2.736.36 1.691.342 3.477-.304 5.092-.057.133-.228.076-.21-.057.19-1.368-.018-2.793-.341-4.16-.038.284-.076.55-.133.816.057.627.133 1.235.133 1.862 0 .988-.133 1.938-.4 2.888a5.267 5.267 0 0 1-.512 1.216c-.247.4-.57.722-.817 1.14l-.076-.038c.247-.437.285-.912.361-1.406.076-.456.152-.912.209-1.349.019-.095 0-.19 0-.285l-.019.076c-.095.323-.209.684-.38.988-.19.551-.38 1.102-.627 1.615-.171.361-.38.722-.589 1.083-.152.247-.266.513-.532.627l-.057-.038c-.038-.285.133-.532.247-.779.171-.38.323-.76.456-1.159.076-.19.095-.399.152-.608-.095.114-.171.247-.266.361-.057.114-.076.247-.133.361a9.903 9.903 0 0 1-1.539 2.394c-.589.703-1.387 1.159-2.147 1.653l-.019-.038c.722-.532 1.16-1.349 1.577-2.128-.17.209-.342.437-.55.627a.861.861 0 0 1-.628.19 14.921 14.921 0 0 1-2.622 2.394c-.152.114-.304-.133-.152-.247a7.923 7.923 0 0 0 1.615-1.672l-.114.038c-.266.209-.513.456-.817.646-1.102.665-2.299 1.121-3.458 1.672-.133.057-.228-.114-.114-.19.627-.323 1.197-.722 1.767-1.159a.877.877 0 0 1-.285-.171c-.304.228-.589.494-.893.722-.133.095-.266-.114-.152-.209l.02-.019c-.096.038-.172.114-.267.152a.635.635 0 0 1-.589-.038l-.133.114c-.665.532-1.406.893-2.147 1.31-.076.039-.133-.075-.057-.113.57-.342 1.007-.855 1.444-1.368-.209.114-.418.228-.646.304-.17.038-.323-.133-.285-.304-.19.247-.437.456-.779.513-.247.038-.456-.076-.608-.247a.737.737 0 0 1-.266.152c.057.095.114.19.19.285.076.095.133.209.21.304.056.095.17.152.265.209.133.076.02.266-.114.209-.133-.057-.247-.133-.36-.19a1.374 1.374 0 0 1-.361-.21 3.157 3.157 0 0 1-.495-.512.784.784 0 0 1-.494-.76c-.114 0-.228 0-.323-.019-.114-.019-.19-.095-.303-.133v.038c.114.152.227.304.36.475.114.17.248.323.38.456.152.152.267.342.4.494.056.076.038.247-.096.228a1.995 1.995 0 0 1-.665-.152 6.154 6.154 0 0 1-.608-.323c-.322-.19-.588-.475-.855-.76a2.372 2.372 0 0 1-.892-.304c-.285-.171-.532-.38-.798-.589.095.171.19.342.285.532.19.38.36.779.55 1.159.096.19-.132.38-.284.228-.323-.304-.646-.59-.912-.912-.19-.228-.361-.475-.532-.722-.323 0-.646-.095-.912-.304l.038.057c.304.456.646.912 1.026 1.31.095.096-.02.267-.152.19a11.216 11.216 0 0 1-1.406-1.101c-.494-.437-.893-.95-1.273-1.482l-.076-.114a1.114 1.114 0 0 1-.437.019c.342.57.646 1.159 1.045 1.71.076.114-.076.247-.19.171-.57-.38-1.102-.779-1.558-1.292-.342-.38-.646-.798-.95-1.216-.114-.038-.228-.057-.342-.095.152.266.285.57.456.836.057.076-.076.171-.133.076l-.684-1.026a2.635 2.635 0 0 1-.703-.55l-.02-.039c-.151-.095-.322-.152-.398-.304-.038-.057-.076-.114-.095-.19h-.02c.267.665.552 1.33.837 1.995.057.133-.114.247-.21.114-.588-.912-1.272-1.9-1.785-2.926-.038-.076-.095-.133-.133-.209h-.114c.19.817.38 1.653.627 2.47.019.095-.133.171-.171.076a52.192 52.192 0 0 1-.95-2.07.812.812 0 0 1-.627-.096c.038.342.095.703.19 1.026.038.19-.228.247-.285.076-.247-.703-.57-1.368-.76-2.09a16.36 16.36 0 0 1-.437-2.09c-.019-.095-.019-.19-.019-.266.076 1.368.133 2.812.399 4.161.019.095-.133.133-.152.038-.399-1.406-.893-2.717-1.14-4.16l-.019-.077c-.057.59-.133 1.197-.133 1.786 0 .19-.266.171-.285 0a19.268 19.268 0 0 1 .038-5.016l-.057-.722c0-.38.057-.74.057-1.12-.095.36-.247.702-.323 1.044-.209 1.007-.418 1.995-.323 3.021.019.095-.152.095-.152 0-.133-.988-.304-2.014-.209-3.02.076-.97.247-1.92.494-2.85.171-.703.437-1.368.665-2.033v-.286c-.095.247-.209.494-.304.76-.323.894-.646 1.786-.836 2.717-.019.095-.17.057-.152-.038.171-1.025.228-2.052.437-3.078.19-.968.475-1.937.817-2.868.057-.152.133-.304.19-.475l.057-1.121a28.257 28.257 0 0 0-1.767 4.218c-.057.19-.304.114-.285-.076.304-1.672.722-3.325 1.33-4.902.114-.266.247-.513.361-.78-.057.115-.114.21-.171.324-.38.74-.836 1.444-1.178 2.223-.057.114-.228.038-.19-.076.323-.836.475-1.71.76-2.565.266-.798.532-1.577.893-2.356.228-.513.494-1.026.779-1.54l.057-.531c-.532.76-1.083 1.52-1.558 2.337-.095.152-.285.019-.228-.133.57-1.368 1.197-2.698 1.957-3.971l.057-.095c.114-1.083.228-2.147.399-3.211.095-.551.171-1.083.266-1.634.342.171.722.247 1.178.114.399-.133 6.023-1.69 6.84-2.185l.076-.038a3.916 3.916 0 0 0-.228.665c-.665 2.793 1.273 5.339 3.724 6.44 2.697 1.217 6.402 1.293 8.568-.987.97-1.026 1.615-2.47 1.463-3.895-.095-.874-.456-1.69-.969-2.394.627.266 1.254.532 1.786.741.551.228 5.605 1.615 5.966 1.672.057 0 .114-.038.171-.038 0 .21.019.418.019.627.475.95.703 2.071.95 3.097.076.323.114.665.19.988a20.262 20.262 0 0 1 1.482 3.268c.038.095-.133.17-.171.076-.266-.608-.627-1.16-1.007-1.691.019.076.038.152.038.209.513.893.969 1.824 1.349 2.83.285.76.475 1.559.665 2.338.095.399.19.798.228 1.216l.057.627c.019.228-.02.532.019.76.019.114-.152.17-.171.057-.076-.228-.228-.456-.323-.665-.076-.19-.171-.38-.247-.57a9.145 9.145 0 0 1-.38-1.007c-.21-.551-.437-1.064-.665-1.596.038.437.076.855.095 1.292.665 1.197 1.216 2.489 1.558 3.838a22 22 0 0 1 .532 2.925c.057.514.076 1.007.076 1.52-.057.456-.247.97-.228 1.482Zm.19 20.045c.988.608 2.147 1.368 2.64 2.47.59 1.349-.113 2.45-1.481 2.716-1.33.248-2.831.038-4.161-.019-1.482-.056-2.945-.113-4.427-.151a312.343 312.343 0 0 0-4.218-.096c-1.33-.018-1.957 0-3.249-.132a26.01 26.01 0 0 0-.19-2.47 9.67 9.67 0 0 0-.665-2.47c1.691-.076 2.736-.21 4.408-.456l.817-.114a86.131 86.131 0 0 0 5.89-.817c.209-.038.456-.076.665-.114.133.038.285.057.418.095A13.4 13.4 0 0 1 57.67 90.4Zm-20.026 2.394a24.476 24.476 0 0 0-.133 2.356c-2.735.588-4.958.607-7.751.703l-4.693.17c-1.33.038-2.869.324-4.18.133-1.064-.17-.95-1.576-.74-2.374a6.376 6.376 0 0 1 1.633-2.87c1.159-1.158 2.622-1.633 4.16-1.785.38.095.76.19 1.16.266 3.154.589 6.384.912 9.576.95.665.019.703-.038 1.367-.038-.303.779-.322 1.69-.398 2.489Zm-2.963-46.435c.133-.076 2.47-2.64 7.58-.703 2.49.95 2.11 4.123 1.577 4.864-1.178 1.691-3.8 1.938-5.642 1.482-1.767-.437-3.61-1.615-3.838-3.553-.095-.722.057-1.425.323-2.09Zm33.267 13.642c.133-1.691-9.233-7.106-10.164-8.36a16.935 16.935 0 0 1-.59-.988c-.113-.437-.208-.874-.322-1.31-.342-1.35-.646-2.718-1.026-4.067l-.342-1.197c0-.114.019-.228 0-.342 0-.133-.038-.266-.076-.38a7.5 7.5 0 0 0-.19-.608c.209-.437-9.29-30.095-14.535-42.14-.437-1.045-1.9-.608-2.203.285-1.045 3.21-2.622 6.326-3.933 9.461-1.311 3.154-2.508 10.431-3.762 13.623a1096.621 1096.621 0 0 0-7.334 19.075c-.114.323-.076.665.038.97-.209.664-.399 1.348-.589 2.032l-.855 3.002c0 3.23-.36 4.598-1.33 7.866-.722 4.123 1.748 3.04.893 7.144l-.627 4.464c-.095.456-.17 3.116-.266 3.572-.17.836-2.299 2.641-2.45 3.477l-.153-.038c-.076.38-.152.76-.228 1.16l.171.778c-.095.494-.228.266-.323.76l-.057.038c-.228.513-.36 1.026-.342 1.596.02.342.114.684.19 1.026-.17 0 5.852 2.793-.418.228-.19.323-.17.684-.209 1.045l1.121 1.52c-.019.323-1.235.114-1.235.418v.475c0 .266 0 .475.133.722l.095.076c.304.817 1.197 1.463 1.92 1.88.93.533.512.476 1.557.723.323.076.665.114.988.152-.323.228-.646.456-.93.722-1.844 1.71-3.402 4.94-2.243 7.428.59 1.254 1.862 1.73 3.192 1.71 1.862-.018 3.762-.246 5.624-.36 3.895-.266 7.429-.912 11.305-.266 1.12.55.018-5.13.19-6.878.019-.247-.096-4.066-.02-5.871.02-.59.855-.266.894-.266.037 0 .854-.38.892.266.095 1.843 0 5.643.038 5.87.361 1.768-.076 7.43 1.197 6.916.97-.114 1.216-.209 2.185-.114.931.076 1.881.152 2.812.19 1.881.057 3.743.133 5.624.171 3.04.058 6.84.798 9.196-1.633 2.26-2.337.114-5.434-1.976-6.916a14.977 14.977 0 0 0-1.881-1.14c1.159-.323 2.28-.741 3.173-1.406 1.14-.855 1.995-2.945 1.178-4.161.057-.133.152-.266.152-.456 0-.057-1.16.342-1.16.285 0-.095 1.16-.665 1.16-.76 0-.133 0-.285-.02-.418l-.056-.836-.114-.969c-.057-.513-.912-.36-.988-.855-.038-.209.722-1.045.684-1.235l-.171-1.254c-.152-1.178-2.147-2.356-2.318-3.553-.21-1.539-.665-6.725-.893-8.245-.114-.722 1.007.722.893 0-.057-.342 0-.893.36-.494a13.526 13.526 0 0 0 2.129 1.444c.589 1.215 2.375 4.084 3.933 3.99.55-.039 1.31-.495 1.615-1.065.76.285 1.576.418 2.374.19 1.121-.323 1.672-1.254 2.052-2.356.78-2.336-1.975-4.996-3.629-5.813Z" fill="#3D6637"/></svg>